<svg width="36" height="45" viewBox="0 0 36 45" fill="none" xmlns="http://www.w3.org/2000/svg">
<path d="M18.0001 0C13.2278 0.00535979 8.65256 1.90352 5.27804 5.27804C1.90352 8.65256 0.00535979 13.2279 0 18.0001C0 31.7207 16.8376 44.3238 17.5546 44.8534C17.6836 44.9486 17.8398 45 18.0001 45C18.1605 45 18.3166 44.9486 18.4456 44.8534C19.1626 44.3238 36.0003 31.7207 36.0003 18.0001C35.9949 13.2279 34.0968 8.65256 30.7222 5.27804C27.3477 1.90352 22.7724 0.00535979 18.0001 0ZM18.0001 31.5002C15.3301 31.5002 12.72 30.7085 10.4999 29.2251C8.2798 27.7417 6.54946 25.6332 5.52767 23.1664C4.50588 20.6996 4.23853 17.9852 4.75944 15.3664C5.28034 12.7476 6.5661 10.3421 8.45412 8.45412C10.3421 6.5661 12.7476 5.28034 15.3664 4.75944C17.9852 4.23853 20.6996 4.50588 23.1664 5.52767C25.6332 6.54946 27.7417 8.2798 29.2251 10.4999C30.7085 12.72 31.5002 15.3301 31.5002 18.0001C31.4963 21.5794 30.0727 25.0109 27.5418 27.5418C25.0109 30.0727 21.5794 31.4963 18.0001 31.5002ZM26.2502 14.2501C26.2792 15.0757 26.0856 15.8939 25.6897 16.6189C25.2939 17.344 24.7103 17.9493 24.0002 18.3714V24.7502C24.0002 25.148 23.8421 25.5296 23.5608 25.8109C23.2795 26.0922 22.898 26.2502 22.5002 26.2502C22.1023 26.2502 21.7208 26.0922 21.4395 25.8109C21.1582 25.5296 21.0002 25.148 21.0002 24.7502V18.3714C20.29 17.9493 19.7065 17.344 19.3106 16.6189C18.9148 15.8939 18.7212 15.0757 18.7501 14.2501C18.7501 11.7683 20.4324 9.75008 22.5002 9.75008C24.5679 9.75008 26.2502 11.7683 26.2502 14.2501ZM17.2501 10.5001V16.5001C17.2495 17.0967 17.0123 17.6686 16.5905 18.0905C16.1686 18.5123 15.5967 18.7495 15.0001 18.7501V24.7502C15.0001 25.148 14.8421 25.5296 14.5608 25.8109C14.2795 26.0922 13.8979 26.2502 13.5001 26.2502C13.1023 26.2502 12.7207 26.0922 12.4394 25.8109C12.1581 25.5296 12.0001 25.148 12.0001 24.7502V18.7501C11.4035 18.7495 10.8316 18.5123 10.4097 18.0905C9.98792 17.6686 9.75067 17.0967 9.75008 16.5001V10.5001C9.75008 10.3012 9.82909 10.1104 9.96975 9.96975C10.1104 9.82909 10.3012 9.75008 10.5001 9.75008C10.699 9.75008 10.8898 9.82909 11.0304 9.96975C11.1711 10.1104 11.2501 10.3012 11.2501 10.5001V14.2501H12.7501V10.5001C12.7501 10.3012 12.8291 10.1104 12.9698 9.96975C13.1104 9.82909 13.3012 9.75008 13.5001 9.75008C13.699 9.75008 13.8898 9.82909 14.0304 9.96975C14.1711 10.1104 14.2501 10.3012 14.2501 10.5001V14.2501H15.7501V10.5001C15.7501 10.3012 15.8291 10.1104 15.9698 9.96975C16.1104 9.82909 16.3012 9.75008 16.5001 9.75008C16.699 9.75008 16.8898 9.82909 17.0305 9.96975C17.1711 10.1104 17.2501 10.3012 17.2501 10.5001Z" fill="#6CA775"/>
</svg>
